# xmcd CD database file
#
# Track frame offsets:
#	183
#	17408
#	33595
#	47283
#	62045
#	92108
#	108333
#	131170
#	150083
#	165070
#	188108
#	205683
#	221533
#	237895
#	255483
#	274595
#	295058
#	313095
#
# Disc length: 4683 seconds
#
# Revision: 6
# Processed by: cddbd v1.5.2PL0 Copyright (c) Steve Scherf et al.
# Submitted via: CDex 1.51
#
DISCID=e4124912
DTITLE=Various Artist - The Glory Of  Gershwin, featuring LARRY ADLER
DYEAR=1994
DGENRE=Jazz
TTITLE0=Summertime - Peter Gabriel
TTITLE1=Do What You Do - Chris De Burgh
TTITLE2=Nice Work If You Can Get It - Sting
TTITLE3=They Can't Take That Away From Me - Lisa Stansfield
TTITLE4=Love Is Here To Stay - Elton John
TTITLE5=I've Got A Crush On You - Carly Simon
TTITLE6=But Not For Me - Elvis Costello
TTITLE7=It Ain't Necessarily So - Cher
TTITLE8=The Man I Love - Kate Bush
TTITLE9=How Long Has This Been Going On - Jon Bon Jovi
TTITLE10=Embraceable You - Oleta Adams
TTITLE11=Bidin' My Time - Willard White
TTITLE12=My Man's Gone Now - Sinead O'connor
TTITLE13=I Got Rhythm - Robert Palmer
TTITLE14=Somebody Loves Me - Meat Loaf
TTITLE15=I'll Build A Stairway To Paradise - Issy Van Randwyck
TTITLE16=Summertime - Courtney Pine
TTITLE17=Rhapsody In Blue - Larry Adler And George Martin
EXTD=YEAR: 1994
EXTT0=
EXTT1=
EXTT2=
EXTT3=
EXTT4=
EXTT5=
EXTT6=
EXTT7=
EXTT8=
EXTT9=
EXTT10=
EXTT11=
EXTT12=
EXTT13=
EXTT14=
EXTT15=
EXTT16=
EXTT17=
PLAYORDER=
